{"asset":{"version":"2.0","generator":"babylon.js glTF exporter for 3dsmax 2020 v20210624.1"},"scene":0,"scenes":[{"nodes":[0]}],"nodes":[{"children":[1,2],"translation":[84.3485641,9.879962,-64.98006],"name":"ATLAS_SERVIER"},{"mesh":0,"translation":[32.8472252,2.421233,-7.76012659],"name":"Bande_Serigraphie011"},{"mesh":1,"translation":[69.8018341,3.27003646,-41.5475769],"rotation":[0.290794373,-0.6445453,0.6445453,0.290794373],"name":"Atlas_SERVIER"}],"meshes":[{"primitives":[{"attributes":{"POSITION":1,"NORMAL":2,"TEXCOORD_0":3},"indices":0,"material":0}],"name":"Bande_Serigraphie011"},{"primitives":[{"attributes":{"POSITION":5,"NORMAL":6,"TEXCOORD_0":7},"indices":4,"material":1}],"name":"Atlas_SERVIER"}],"accessors":[{"bufferView":0,"componentType":5123,"count":10398,"type":"SCALAR","name":"accessorIndices"},{"bufferView":1,"componentType":5126,"count":10398,"max":[49.19492,5.042664,50.7746277],"min":[-47.2090759,-8.531246,-47.77996],"type":"VEC3","name":"accessorPositions"},{"bufferView":1,"byteOffset":124776,"componentType":5126,"count":10398,"type":"VEC3","name":"accessorNormals"},{"bufferView":2,"componentType":5126,"count":10398,"type":"VEC2","name":"accessorUVs"},{"bufferView":0,"byteOffset":20796,"componentType":5123,"count":60255,"type":"SCALAR","name":"accessorIndices"},{"bufferView":1,"byteOffset":249552,"componentType":5126,"count":60255,"max":[182.147217,131.1852,15.0529051],"min":[-27.46569,-81.64656,-8.512832],"type":"VEC3","name":"accessorPositions"},{"bufferView":1,"byteOffset":972612,"componentType":5126,"count":60255,"type":"VEC3","name":"accessorNormals"},{"bufferView":2,"byteOffset":83184,"componentType":5126,"count":60255,"type":"VEC2","name":"accessorUVs"}],"bufferViews":[{"buffer":0,"byteLength":141308,"name":"bufferViewScalar"},{"buffer":0,"byteOffset":141308,"byteLength":1695672,"byteStride":12,"name":"bufferViewFloatVec3"},{"buffer":0,"byteOffset":1836980,"byteLength":565224,"byteStride":8,"name":"bufferViewFloatVec2"}],"buffers":[{"uri":"simplifier.bin","byteLength":2402204}],"materials":[{"pbrMetallicRoughness":{"baseColorFactor":[0.266666681,0.3921569,0.372549027,1.0],"metallicFactor":0.0,"roughnessFactor":0.2848369},"name":"VERRE"},{"pbrMetallicRoughness":{"baseColorFactor":[0.588,0.588,0.588,1.0],"metallicFactor":0.0,"roughnessFactor":0.450053632},"name":"SERVIER_BAT_ABCDEF"}]}